HIERARCHY
ROOT Hips
{
 OFFSET 0.000000 0.000000 0.000000
 CHANNELS 6 Xposition Yposition Zposition Yrotation Xrotation Zrotation
 JOINT Chest
 {
  OFFSET 0.000000 9.585900 0.002600
  CHANNELS 3 Yrotation Xrotation Zrotation
  JOINT Chest2
  {
   OFFSET 0.000000 9.601200 -0.005300
   CHANNELS 3 Yrotation Xrotation Zrotation
   JOINT Chest3
   {
    OFFSET 0.000000 9.561800 0.000000
    CHANNELS 3 Yrotation Xrotation Zrotation
    JOINT Chest4
    {
     OFFSET 0.000000 9.552100 0.000000
     CHANNELS 3 Yrotation Xrotation Zrotation
     JOINT Neck
     {
      OFFSET 0.000000 14.453000 0.000000
      CHANNELS 3 Yrotation Xrotation Zrotation
      JOINT Head
      {
       OFFSET 0.000000 8.936500 -0.011300
       CHANNELS 3 Yrotation Xrotation Zrotation
       End Site
       {
        OFFSET 0.000000 17.073600 -0.006000
       }
      }
     }
     JOINT RightCollar
     {
      OFFSET -2.921100 9.558500 0.000000
      CHANNELS 3 Yrotation Xrotation Zrotation
      JOINT RightShoulder
      {
       OFFSET -13.519700 0.000000 0.000000
       CHANNELS 3 Yrotation Xrotation Zrotation
       JOINT RightElbow
       {
        OFFSET 0.000000 -29.696600 0.000000
        CHANNELS 3 Yrotation Xrotation Zrotation
        JOINT RightWrist
        {
         OFFSET 0.000000 -24.004700 0.000000
         CHANNELS 3 Yrotation Xrotation Zrotation
         End Site
         {
          OFFSET 0.000000 -17.728500 0.000000
         }
        }
       }
      }
     }
     JOINT LeftCollar
     {
      OFFSET 2.921100 9.558500 0.000000
      CHANNELS 3 Yrotation Xrotation Zrotation
      JOINT LeftShoulder
      {
       OFFSET 13.519700 0.000000 0.000000
       CHANNELS 3 Yrotation Xrotation Zrotation
       JOINT LeftElbow
       {
        OFFSET 0.000000 -29.696600 0.000000
        CHANNELS 3 Yrotation Xrotation Zrotation
        JOINT LeftWrist
        {
         OFFSET 0.000000 -24.004700 0.000000
         CHANNELS 3 Yrotation Xrotation Zrotation
         End Site
         {
          OFFSET 0.000000 -17.728500 0.000000
         }
        }
       }
      }
     }
    }
   }
  }
 }
 JOINT RightHip
 {
  OFFSET -7.771700 -0.012900 -0.001300
  CHANNELS 3 Yrotation Xrotation Zrotation
  JOINT RightKnee
  {
   OFFSET 0.000000 -40.869800 0.001200
   CHANNELS 3 Yrotation Xrotation Zrotation
   JOINT RightAnkle
   {
    OFFSET 0.000000 -39.717900 0.002100
    CHANNELS 3 Yrotation Xrotation Zrotation
    JOINT RightToe
    {
     OFFSET 0.000000 -4.965400 11.033500
     CHANNELS 3 Yrotation Xrotation Zrotation
     End Site
     {
      OFFSET 0.000000 -1.423100 5.872300
     }
    }
   }
  }
 }
 JOINT LeftHip
 {
  OFFSET 7.771700 -0.012900 -0.001300
  CHANNELS 3 Yrotation Xrotation Zrotation
  JOINT LeftKnee
  {
   OFFSET 0.000000 -40.869800 0.001200
   CHANNELS 3 Yrotation Xrotation Zrotation
   JOINT LeftAnkle
   {
    OFFSET 0.000000 -39.717900 0.002100
    CHANNELS 3 Yrotation Xrotation Zrotation
    JOINT LeftToe
    {
     OFFSET 0.000000 -4.965400 11.033500
     CHANNELS 3 Yrotation Xrotation Zrotation
     End Site
     {
      OFFSET 0.000000 -1.423100 5.872300
     }
    }
   }
  }
 }
}
MOTION
Frames: 13
Frame Time: 0.008333
0.000000 85.388000 0.000000 0.000000 -5.767877 0.000000 0.000000 11.653817 0.000000 0.000000 -5.885947 0.000000 0.000000 -0.000000 0.000000 0.000000 -0.000000 0.000000 0.000000 12.528835 0.000000 0.000000 0.711642 0.000000 0.000000 -0.000000 0.000000 0.000000 0.000000 -90.000000 0.000000 -2.309062 0.000000 0.000000 2.309062 0.000000 0.000000 -0.000000 0.000000 0.000000 -0.000000 90.000000 0.000000 -2.309062 0.000000 0.000000 2.309062 0.000000 0.000000 8.520406 0.000000 0.000000 1.905762 0.000000 -0.000000 -4.658285 0.000000 0.000000 -0.000000 0.000000 0.000000 8.520406 0.000000 0.000000 1.905762 0.000000 -0.000000 -4.658285 0.000000 0.000000 -0.000000 0.000000
-126.912807 49.185199 19.768054 174.218330 -31.227619 -3.487857 0.140300 18.447584 2.516133 -0.023653 2.141675 0.260930 -0.032465 3.485353 0.422188 0.067333 16.082679 1.978596 -0.211169 19.633214 0.316491 -0.481978 0.667184 0.642192 -2.207483 -2.330881 -4.150495 5.155901 -9.884545 -13.640844 -39.776463 -46.286697 91.002271 2.178907 1.588876 -8.454084 -0.685588 -3.617532 2.749626 -7.275115 -3.185735 14.796758 72.965059 -66.039959 -110.876323 2.763259 13.136638 3.762706 -3.861992 -53.542328 -6.525058 -175.630713 82.813533 -163.345919 -30.314884 -3.418136 -3.741028 -0.112315 -12.342263 0.807400 -14.351058 -54.901392 21.190227 -75.967144 66.026723 -80.767156 30.526395 5.786419 14.913239 0.057033 -0.278585 0.014902
-126.907561 49.187543 19.763679 174.224669 -31.253959 -3.512564 0.138742 18.422252 2.527827 -0.023077 2.110593 0.256198 -0.036732 3.469016 0.419374 0.063830 16.042865 1.970778 -0.522939 19.964154 0.335388 -1.053777 1.284759 0.768636 -2.219691 -2.344332 -4.186950 5.122426 -9.863136 -13.531136 -39.869431 -46.322462 91.047063 2.200649 1.565395 -8.407834 -0.703303 -3.648535 2.814370 -7.030496 -3.084306 14.675025 72.968849 -65.934462 -110.900519 2.794585 13.019426 3.555827 -3.851452 -53.493470 -6.507941 -175.536937 82.828948 -163.239226 -30.301764 -3.438103 -3.737474 -0.115403 -12.316307 0.814574 -14.412831 -54.862376 21.229318 -75.979849 66.034986 -80.781818 30.532458 5.776114 14.894390 0.046050 -0.276676 0.015884
-126.902149 49.188743 19.761623 174.215968 -31.267082 -3.534698 0.153457 18.417777 2.551972 -0.035011 2.057456 0.245225 -0.038042 3.451649 0.416327 0.056093 16.008085 1.961208 -0.803578 20.292814 0.341308 -1.563452 1.898609 0.859401 -2.227663 -2.378345 -4.229906 5.088813 -9.843841 -13.420036 -39.958854 -46.379452 91.090850 2.228788 1.550943 -8.355200 -0.711767 -3.674709 2.882308 -6.771280 -2.983902 14.545232 72.945813 -65.807714 -110.915731 2.832482 12.894266 3.363347 -3.780120 -53.479492 -6.497920 -175.304549 82.821719 -162.985148 -30.301268 -3.416727 -3.715957 -0.099770 -12.316612 0.820011 -14.478145 -54.833060 21.283010 -76.022466 66.022344 -80.801317 30.505386 5.765915 14.839099 0.085969 -0.258663 0.021254
-126.902030 49.189253 19.760226 174.216598 -31.273938 -3.535732 0.138055 18.365791 2.536053 -0.045501 2.041754 0.239210 -0.036998 3.454752 0.416469 0.043148 15.979290 1.949566 -1.049127 20.610012 0.333878 -2.004235 2.491227 0.913306 -2.234101 -2.430505 -4.279166 5.053452 -9.833274 -13.305153 -40.039967 -46.459276 91.133056 2.258450 1.551634 -8.299193 -0.714601 -3.698734 2.950820 -6.499679 -2.885526 14.409044 72.913340 -65.672604 -110.932316 2.870743 12.759645 3.177695 -3.735191 -53.477681 -6.501802 -175.185178 82.813415 -162.871550 -30.297725 -3.401364 -3.695725 -0.111778 -12.314344 0.827725 -14.497729 -54.820103 21.288940 -76.019194 66.023289 -80.797763 30.492800 5.765054 14.828479 0.088966 -0.256414 0.022375
-126.902360 49.190446 19.758499 174.216479 -31.287841 -3.540840 0.118041 18.331153 2.521642 -0.036768 2.065843 0.244691 -0.051708 3.423470 0.406332 0.025581 15.955863 1.936174 -1.260241 20.909560 0.316040 -2.378704 3.050799 0.936782 -2.240579 -2.494358 -4.332779 5.013443 -9.831023 -13.184103 -40.117318 -46.560063 91.175714 2.289842 1.564940 -8.240100 -0.717784 -3.718801 3.017965 -6.225155 -2.785379 14.270178 72.901796 -65.536672 -110.970534 2.906886 12.615468 2.992161 -3.706564 -53.467784 -6.491341 -175.091769 82.808335 -162.790191 -30.294529 -3.386022 -3.675335 -0.124964 -12.312048 0.834432 -14.518753 -54.798365 21.297209 -76.013815 66.023991 -80.791293 30.486602 5.763883 14.814312 0.089995 -0.254274 0.026142
-126.902006 49.190797 19.759244 174.227737 -31.290527 -3.566245 0.091595 18.299959 2.522511 -0.027150 2.079935 0.249893 -0.066769 3.399027 0.395726 0.031471 15.966517 1.937465 -1.467793 21.156275 0.283789 -2.693694 3.571178 0.937325 -2.270387 -2.592325 -4.394664 4.964324 -9.832609 -13.056267 -40.198774 -46.681312 91.223424 2.326819 1.589906 -8.173614 -0.748452 -3.762517 3.074963 -5.964860 -2.678458 14.130266 72.934938 -65.408339 -111.041506 2.941006 12.459622 2.809850 -3.729910 -53.470213 -6.435032 -174.964090 82.804798 -162.695091 -30.289245 -3.357890 -3.639052 -0.118456 -12.315742 0.825112 -14.598185 -54.776520 21.336157 -76.020954 66.006596 -80.765063 30.471314 5.770380 14.736128 0.138945 -0.234261 0.043979
-126.915641 49.190047 19.759420 174.234009 -31.290508 -3.514845 0.036875 18.261597 2.435055 -0.019785 2.085334 0.255069 -0.072433 3.393988 0.391781 0.037017 15.974331 1.939483 -1.649078 21.382607 0.247760 -2.958458 4.045871 0.921862 -2.295767 -2.682800 -4.454099 4.904597 -9.832424 -12.923845 -40.293673 -46.824374 91.281429 2.371908 1.631147 -8.096377 -0.785569 -3.790259 3.126276 -5.731395 -2.566108 13.992522 73.015867 -65.292787 -111.134818 2.971077 12.290809 2.631233 -3.617696 -53.480745 -6.533457 -174.878054 82.799867 -162.625601 -30.307137 -3.341774 -3.610607 -0.111487 -12.306915 0.832003 -14.597239 -54.774110 21.253953 -75.966901 66.038279 -80.733267 30.492769 5.728053 14.745097 0.096605 -0.195776 0.025532
-126.921447 49.189279 19.761701 174.239411 -31.288891 -3.520085 0.006946 18.236218 2.411155 -0.018165 2.080624 0.257332 -0.063036 3.405243 0.397760 -0.041087 15.895377 1.897292 -1.736543 21.653716 0.227922 -3.182647 4.465353 0.897847 -2.252134 -2.699162 -4.492114 4.840048 -9.824429 -12.791911 -40.406503 -46.989890 91.350053 2.424829 1.684766 -8.008896 -0.764430 -3.734867 3.182745 -5.534947 -2.451058 13.865305 73.140926 -65.199011 -111.237139 3.000003 12.108435 2.453970 -3.556517 -53.484592 -6.549020 -174.720293 82.797635 -162.464335 -30.312002 -3.333150 -3.593241 -0.114705 -12.290468 0.844664 -14.630251 -54.770569 21.261141 -75.957942 66.041728 -80.722487 30.459022 5.730019 14.738616 0.116300 -0.187016 0.019175
-126.927011 49.187513 19.765544 174.245434 -31.281740 -3.535985 -0.013689 18.213527 2.403941 -0.036603 2.057265 0.243735 -0.039143 3.428009 0.415252 -0.084825 15.852725 1.873941 -1.832795 21.859321 0.202211 -3.370336 4.823256 0.870657 -2.216595 -2.694753 -4.506217 4.757741 -9.858614 -12.690638 -40.534791 -47.182319 91.425834 2.484981 1.741459 -7.912112 -0.771003 -3.707601 3.217155 -5.388533 -2.336195 13.756138 73.304210 -65.138041 -111.337401 3.031938 11.907467 2.279916 -3.531854 -53.488572 -6.545727 -174.615874 82.800563 -162.351791 -30.291462 -3.345838 -3.620382 -0.129082 -12.261166 0.883719 -14.711886 -54.767289 21.295287 -75.945435 66.050222 -80.706122 30.457661 5.739057 14.706712 0.116065 -0.184729 0.021691
-126.932840 49.185461 19.769226 174.263014 -31.279337 -3.562102 -0.027253 18.208865 2.417151 -0.037211 2.055805 0.243442 -0.079754 3.379236 0.386949 -0.053745 15.884650 1.892517 -1.943889 21.997354 0.172024 -3.525594 5.119109 0.844849 -2.233236 -2.800901 -4.555869 4.743383 -9.778721 -12.587229 -40.771945 -47.405578 91.563873 2.548705 1.797163 -7.808463 -0.804174 -3.710864 3.231889 -5.297869 -2.230124 13.665807 73.495711 -65.113511 -111.426069 3.061699 11.690169 2.104192 -3.528943 -53.495637 -6.526955 -174.537454 82.797875 -162.279478 -30.282917 -3.343911 -3.615661 -0.121889 -12.241649 0.896209 -14.834262 -54.761566 21.323108 -75.932869 66.099971 -80.697002 30.488231 5.791664 14.679945 0.092404 -0.236321 0.014735
-126.941447 49.180120 19.776908 174.274504 -31.250838 -3.573957 -0.057135 18.168628 2.402314 -0.038705 2.050903 0.242377 -0.078061 3.373243 0.388665 -0.051137 15.888344 1.893959 -2.037721 22.106488 0.149332 -3.657316 5.357490 0.825648 -2.245910 -2.888013 -4.590337 4.676567 -9.762143 -12.432643 -40.879203 -47.668555 91.598923 2.614032 1.851175 -7.698316 -0.825576 -3.704735 3.238611 -5.251311 -2.158240 13.608708 73.683296 -65.105869 -111.487258 3.080177 11.474092 1.913192 -3.508229 -53.527358 -6.524031 -174.426788 82.805278 -162.174830 -30.288957 -3.324840 -3.616660 -0.121550 -12.231853 0.916049 -14.916168 -54.791686 21.331684 -75.955997 66.100179 -80.671786 30.506441 5.783410 14.603446 0.090392 -0.199224 0.026641
-126.947420 49.176066 19.781935 174.283297 -31.246868 -3.598195 -0.072850 18.154119 2.407557 -0.040505 2.046454 0.241581 -0.075380 3.371297 0.390998 -0.073598 15.868700 1.883944 -2.099895 22.209219 0.136933 -3.772806 5.547965 0.818757 -2.234534 -2.912624 -4.597787 4.627327 -9.779020 -12.303320 -41.000042 -47.969341 91.617237 2.682334 1.907340 -7.585240 -0.814376 -3.667530 3.238515 -5.228939 -2.137189 13.599320 73.844143 -65.092999 -111.522376 3.076892 11.282584 1.700735 -3.499242 -53.535382 -6.503476 -174.283392 82.806497 -162.034877 -30.285061 -3.311771 -3.611327 -0.125672 -12.219617 0.929192 -14.971780 -54.793527 21.359525 -75.975407 66.100202 -80.664681 30.479570 5.790859 14.563072 0.083931 -0.198439 0.040226
